<svg version="1.2" xmlns="http://www.w3.org/2000/svg" viewBox="0 0 1000 1000" width="1000" height="1000">
	<title>2672271-ai</title>
	<style>
		.s0 { fill: #ebd7e7 } 
		.s1 { fill: #7c36d7 } 
		.s2 { fill: #5828aa } 
		.s3 { fill: #8d5ce1 } 
		.s4 { fill: #ffffff } 
		.s5 { fill: #ff4059 } 
		.s6 { fill: #e71c4a } 
		.s7 { fill: #3c118e } 
		.s8 { fill: #474574 } 
		.s9 { fill: #29245d } 
		.s10 { mix-blend-mode: screen;fill: #474574 } 
		.s11 { opacity: .3;fill: #ffffff } 
		.s12 { fill: #ffaa95 } 
		.s13 { fill: #ff8b6b } 
		.s14 { fill: #d85c48 } 
		.s15 { fill: #8e43ef } 
		.s16 { fill: #f6f6f6 } 
	</style>
	<g id="OBJECTS">
		<path id="&lt;Path&gt;" class="s0" d="m936.9 877.1c0 12.1-187.5 21.9-418.8 21.9-231.3 0-418.7-9.8-418.7-21.9 0-12.1 187.4-21.9 418.7-21.9 231.3 0 418.8 9.8 418.8 21.9z"/>
		<g id="&lt;Group&gt;">
			<path id="&lt;Path&gt;" class="s0" d="m451.6 293.1c-31.3-113.3-172.1-149.8-252.8-65.1q-1.7 1.8-3.5 3.7c-115.6 125.7-61 435.6 180.4 514.2 241.5 78.5 492.6-64.9 506.7-193.1 14.1-128.2-97.3-168.5-270.1-132.7-97.7 20.3-141.3-56.4-160.7-127z"/>
			<path id="&lt;Path&gt;" class="s0" d="m671.6 310.5c-32.3 5.3-41.2 33.9-16.3 54.2 8.3 6.7 20 12.3 36.8 15.1 63.9 10.6 97.8-17.7 72.2-54.3-15.8-22.7-60.6-20.2-92.7-15z"/>
			<path id="&lt;Path&gt;" class="s0" d="m124.5 656.3c-26.3-19.4-53-5.8-50.1 26.2 0.9 10.6 5.2 22.9 14.9 36.8 37.1 53.1 81 57.6 89.3 13.7 5.2-27.2-28-57.5-54.1-76.7z"/>
			<path id="&lt;Path&gt;" class="s0" d="m872.9 628.3c-6.3 14.5 3.8 28.1 19.3 25.5 5.2-0.9 10.8-3.6 16.5-9.2 21.6-21.4 18.3-44.6-4.5-47.5-14.1-1.7-25 16.8-31.3 31.2z"/>
			<path id="&lt;Path&gt;" class="s0" d="m446.2 236.6c12.3 10 28.1 3.9 29.7-11.7 0.6-5.2-0.5-11.3-4.3-18.3-14.8-26.7-38.1-29.8-47-8.5-5.5 13.1 9.4 28.6 21.6 38.5z"/>
			<path id="&lt;Path&gt;" class="s0" d="m265.2 779.5c-15.3 4.2-19.5 20.6-7.8 31.1 3.9 3.4 9.5 6.1 17.5 7 30.2 3.6 46.3-13.5 34.2-33.2-7.5-12.1-28.7-9-43.9-4.9z"/>
		</g>
		<g id="&lt;Group&gt;">
			<g id="&lt;Group&gt;">
				<g id="&lt;Group&gt;">
					<g id="&lt;Group&gt;">
						<path id="&lt;Path&gt;" class="s0" d="m687 137.4q0.4 0 0.8-0.1c2.5-1.1 4-1.6 4-1.6 0.8-0.3 1.2-1.1 1-1.9-0.3-0.8-1.1-1.2-1.9-0.9-0.1 0-1.6 0.5-4.3 1.6-0.8 0.4-1.1 1.2-0.8 2 0.2 0.5 0.7 0.8 1.2 0.9z"/>
					</g>
					<g id="&lt;Group&gt;">
						<path id="&lt;Path&gt;" class="s0" d="m610.8 217.6c-1 2.7-2 5.5-2.8 8.3-0.2 0.7-0.9 1.2-1.6 1.1q-0.2 0-0.3-0.1c-0.8-0.2-1.2-1.1-1-1.8 0.9-2.9 1.9-5.8 2.9-8.5 0.3-0.8 1.1-1.2 1.9-0.9 0.8 0.3 1.2 1.1 0.9 1.9z"/>
						<path id="&lt;Path&gt;" class="s0" d="m605.6 234.4c-0.6 2.8-1.3 5.7-1.8 8.6-0.1 0.8-0.9 1.3-1.6 1.2q-0.1 0-0.1 0c-0.9-0.1-1.4-0.9-1.2-1.7 0.5-3 1.1-5.9 1.8-8.8 0.2-0.8 1-1.3 1.8-1.1 0.8 0.2 1.3 1 1.1 1.8z"/>
						<path id="&lt;Path&gt;" class="s0" d="m599.3 279.6c-0.7-0.1-1.3-0.7-1.3-1.5 0-3 0-6 0.1-8.9 0-0.9 0.7-1.5 1.5-1.5 0.8 0 1.5 0.7 1.5 1.6-0.1 2.8-0.2 5.8-0.1 8.8 0 0.8-0.7 1.5-1.5 1.5q-0.1 0-0.2 0z"/>
						<path id="&lt;Path&gt;" class="s0" d="m601.1 250c0.9 0.1 1.4 0.9 1.3 1.7q-0.2 2-0.4 4.1-0.3 2.3-0.5 4.7c0 0.8-0.8 1.4-1.6 1.3q0 0 0 0c-0.8-0.1-1.4-0.8-1.4-1.6q0.2-2.4 0.5-4.8 0.2-2 0.5-4.1c0.1-0.8 0.8-1.4 1.6-1.3q0 0 0 0z"/>
						<path id="&lt;Path&gt;" class="s0" d="m614.1 209.5c-0.2 0.6-0.9 0.9-1.5 0.9q-0.2-0.1-0.4-0.2c-0.8-0.3-1.1-1.2-0.8-1.9 1.2-2.8 2.5-5.5 3.9-8.1 0.4-0.7 1.3-1 2.1-0.6 0.7 0.4 1 1.3 0.6 2-1.4 2.6-2.7 5.2-3.9 7.9z"/>
						<path id="&lt;Path&gt;" class="s0" d="m679.8 141c-2.6 1.3-5.1 2.8-7.7 4.3q-0.4 0.2-0.9 0.2c-0.5-0.1-0.9-0.3-1.1-0.8-0.5-0.7-0.2-1.6 0.5-2 2.6-1.6 5.2-3 7.9-4.4 0.7-0.3 1.6 0 2 0.7 0.3 0.7 0.1 1.6-0.7 2z"/>
						<path id="&lt;Path&gt;" class="s0" d="m657.5 155.1c-0.3 0.2-0.7 0.3-1 0.3-0.4-0.1-0.8-0.2-1.1-0.6-0.5-0.6-0.3-1.6 0.3-2.1 2.4-1.8 4.8-3.6 7.3-5.2 0.7-0.5 1.6-0.3 2.1 0.4 0.4 0.7 0.3 1.6-0.4 2.1-2.4 1.6-4.9 3.3-7.2 5.1z"/>
						<path id="&lt;Path&gt;" class="s0" d="m632.4 179.6c-0.3 0.4-0.8 0.6-1.3 0.5q-0.4 0-0.8-0.3c-0.6-0.5-0.8-1.4-0.2-2.1 1.8-2.3 3.8-4.6 5.8-6.8 0.5-0.6 1.5-0.7 2.1-0.1 0.6 0.5 0.7 1.5 0.1 2.1-2 2.2-3.9 4.4-5.7 6.7z"/>
						<path id="&lt;Path&gt;" class="s0" d="m644.2 166.6c-0.3 0.3-0.8 0.4-1.2 0.4q-0.5-0.1-0.9-0.5c-0.6-0.5-0.6-1.5 0-2.1 2.2-2 4.4-4.1 6.6-6 0.7-0.6 1.6-0.5 2.2 0.1 0.5 0.7 0.4 1.6-0.2 2.1-2.2 1.9-4.4 3.9-6.5 6z"/>
						<path id="&lt;Path&gt;" class="s0" d="m622.3 194c-0.3 0.5-0.9 0.7-1.4 0.7q-0.3-0.1-0.6-0.2c-0.7-0.5-1-1.4-0.5-2.1 1.5-2.5 3.2-5.1 4.9-7.5 0.5-0.7 1.4-0.9 2.1-0.4 0.6 0.5 0.8 1.4 0.3 2.1-1.6 2.4-3.3 4.9-4.8 7.4z"/>
					</g>
				</g>
				<g id="&lt;Group&gt;">
					<g id="&lt;Group&gt;">
						<path id="&lt;Path&gt;" class="s1" d="m750.8 93.1l12.1 45.5-65.9 17.5-12.1-45.5z"/>
						<g id="&lt;Group&gt;">
							<path id="&lt;Path&gt;" class="s2" d="m717.7 127.1l-18.8 28.5-1.9 0.5-0.4-1.2 19.3-29z"/>
						</g>
						<g id="&lt;Group&gt;">
							<path id="&lt;Path&gt;" class="s2" d="m762.6 137.6l0.3 1-2.1 0.6-30.5-15.4 1-2z"/>
						</g>
						<path id="&lt;Path&gt;" class="s3" d="m684.9 110.6l40.7 20.6 25.2-38.1z"/>
					</g>
				</g>
			</g>
			<g id="&lt;Group&gt;">
				<g id="&lt;Group&gt;">
					<g id="&lt;Group&gt;">
						<g id="&lt;Group&gt;">
							<path id="&lt;Path&gt;" class="s1" d="m125.1 604.3h-43.6c-6.3 0-11.3-5.1-11.3-11.4v-43.6c0-6.3 5-11.3 11.3-11.3h43.6c6.3 0 11.3 5 11.3 11.3v43.6c0 6.3-5 11.4-11.3 11.4z"/>
						</g>
					</g>
				</g>
				<g id="&lt;Group&gt;">
					<path id="&lt;Path&gt;" class="s3" d="m125.9 571.1c0 5.5-2 10.5-5.2 14.4-4.1 5-10.4 8.2-17.4 8.2-7 0-13.3-3.2-17.4-8.2-3.2-3.9-5.2-8.9-5.2-14.4 0-12.5 10.1-22.6 22.6-22.6 12.5 0 22.6 10.1 22.6 22.6z"/>
					<path id="&lt;Path&gt;" class="s4" d="m120.7 585.5c-4.1 5-10.4 8.2-17.4 8.2-7 0-13.3-3.2-17.4-8.2l0.3-0.6c0.5-1 1.2-1.8 2-2.5 0.8-0.7 1.7-1.2 2.8-1.5 3.7-1.2 7.1-2.3 9-5.6-2.4-1.1-3.9-3.3-4.6-4.8-2.5 0.5-4.3-4.2-3-5.4 0.5-0.5 1.1-0.6 1.5-0.6 0.5-4.8 4.5-9.1 9.4-9.1 4.9 0 9 4.3 9.4 9.1 0.4 0 1 0.1 1.5 0.6 1.4 1.2-0.5 5.9-3 5.4-0.6 1.7-2.5 3.8-4.2 4.5 1.9 3.3 5 4.7 8.6 5.9 1.1 0.3 2 0.8 2.8 1.5 0.8 0.7 1.5 1.5 2 2.5z"/>
				</g>
			</g>
			<g id="&lt;Group&gt;">
				<g id="&lt;Group&gt;">
					<g id="&lt;Group&gt;">
						<g id="&lt;Group&gt;">
							<g id="&lt;Group&gt;">
								<path id="&lt;Path&gt;" class="s5" d="m564 201.8h-43.6c-6.3 0-11.4-5.1-11.4-11.4v-43.6c0-6.2 5.1-11.3 11.4-11.3h43.6c6.2 0 11.3 5.1 11.3 11.3v43.6c0 6.3-5.1 11.4-11.3 11.4z"/>
							</g>
						</g>
					</g>
				</g>
				<path id="&lt;Compound Path&gt;" fill-rule="evenodd" class="s4" d="m556.7 160.8c0.1 2.8-0.7 5.4-2 7.7-0.6 1-1.3 2.1-1.9 3.2l-10.5 18.9-6.9-12.3c-1.8-3.3-3.8-6.5-5.7-9.8-1.3-2.1-2-4.7-2-7.4 0-8.3 7-15 15.5-14.4 7.4 0.4 13.3 6.6 13.5 14.1zm-8.4-1.4c0-3.4-2.7-6.1-6.1-6.1-3.4 0-6.2 2.7-6.2 6.1 0 3.4 2.8 6.1 6.2 6.1 3.4 0 6.1-2.7 6.1-6.1z"/>
			</g>
		</g>
		<g id="&lt;Group&gt;">
			<g id="&lt;Group&gt;">
				<g id="&lt;Group&gt;">
					<path id="&lt;Path&gt;" class="s5" d="m793.6 461.7c-2.3 27.5-28.3 32.1-23.4 53 4.9 20.9-5 39.6-23.9 39.5-19-0.1-33-1.2-36.9 21.5-3.9 22.6-28.2 38.5-42 24.2-3.5-3.6-7.2-7.4-10.9-11.2q-1.5-1.6-3-3.1-0.3-0.4-0.7-0.7c-14.7-15.3-15.9-39.4-2.2-55.6 5.5-6.6 12.8-11.1 22.3-10.3 29.8 2.4 13.8-23.7 28.1-39.2 16.3-17.7 36.1-5.6 46.9-20 14.9-20.2 48-25.6 45.7 1.9z"/>
				</g>
				<g id="&lt;Group&gt;">
					<g id="&lt;Group&gt;">
						<path id="&lt;Path&gt;" class="s6" d="m762.5 479.9l-106 108.8q-1.5-1.6-3-3.1l105.9-108.7c0.8-0.9 2.2-0.9 3-0.1 0.9 0.9 0.9 2.2 0.1 3.1z"/>
					</g>
				</g>
			</g>
			<g id="&lt;Group&gt;">
				<path id="&lt;Path&gt;" class="s2" d="m170.7 303.7c8.5 28.3 36.8 27.4 36.2 50.4-0.6 23 13.8 40.5 33.7 36.3 19.8-4.3 34.2-8.5 43.3 14.4 9 22.9 37.9 34.3 49.4 16.3 2.8-4.5 5.9-9.4 8.9-14.2q1.2-2 2.4-3.9 0.3-0.4 0.6-0.9c12.1-19.2 8.1-44.7-9.7-58.7-7.3-5.7-15.9-8.9-25.7-6-30.7 9-19.6-21.9-37.9-34.9-21.1-15.1-39.2 2-53.6-10.9-20.1-17.8-56-16.2-47.6 12.1z"/>
				<g id="&lt;Group&gt;">
					<g id="&lt;Group&gt;">
						<path id="&lt;Path&gt;" class="s7" d="m207.4 315.9l134.8 91q1.2-2 2.4-3.9l-134.7-90.9c-1-0.7-2.4-0.4-3.1 0.6-0.8 1.1-0.5 2.5 0.6 3.2z"/>
					</g>
				</g>
			</g>
			<path id="&lt;Path&gt;" class="s1" d="m795.7 232.4c32-13.3 59.9-31.9 44.4-43-15.4-11.1-62.8 21.7-84.7 60.3l-10.6 11.4c16.5-27.9 21.3-68.1 7.1-75.8-14.2-7.6-14.9 19.5-11.5 44.4 2.6 18.9-0.1 31.9-2 38.4l-50.1 53.6c26-44.2 33.5-107.8 11-119.9-22.5-12-23.7 31-18.3 70.4 4.1 29.8 0 50.4-3.1 60.7l-10 10.7q2.4 3 4.8 6l59.5-63.8c7.2-1.8 17.5-3.3 30.9-2.4 25 1.7 52-1 43.4-14.6-7.4-11.7-38.1-7.7-63.5 5.4l20.6-22.1c7.6-5.7 18.3-13.9 32.1-19.7z"/>
			<g id="&lt;Group&gt;">
				<path id="&lt;Path&gt;" class="s5" d="m206 693.3c-33.2-9.9-62.9-25.5-48.7-38.1 14.3-12.7 64.8 15 90.6 51.1l11.7 10.2c-19.3-26-28.3-65.6-14.9-74.7 13.3-9 16.9 17.9 16.1 43-0.6 19.1 3.3 31.7 6 37.9l55.4 48.1c-30.5-41.2-44.6-103.7-23.5-118.1 21.1-14.3 26.8 28.3 25.5 68.1-0.9 30.1 5.3 50.1 9.5 60.1l11 9.5q-2 3.3-4.1 6.5l-65.9-57.2c-7.2-1-17.6-1.4-30.9 0.9-24.7 4.3-51.8 4.4-44.7-10 6.1-12.5 37-11.7 63.7-1.3l-22.8-19.8c-8.1-4.9-19.6-12-34-16.2z"/>
			</g>
			<g id="&lt;Group&gt;">
				<path id="&lt;Path&gt;" class="s1" d="m215.8 189.2c-3.3 27.4 21.3 37.1 12.2 56.6-9.1 19.5-3.2 39.8 15.4 43.6 18.6 3.8 32.5 5.5 31.7 28.5-0.7 22.9 19.8 43.4 36.3 32.2 4.1-2.8 8.5-5.8 12.9-8.8q1.8-1.2 3.5-2.4 0.4-0.3 0.8-0.5c17.5-12 23.6-35.3 13.5-54-4-7.5-10.3-13.5-19.7-14.6-29.7-3.7-8.7-26.1-19.5-44-12.5-20.8-34.3-12.9-41.9-29.2-10.5-22.8-41.8-34.8-45.2-7.4z"/>
				<g id="&lt;Group&gt;">
					<g id="&lt;Group&gt;">
						<path id="&lt;Path&gt;" class="s2" d="m242.7 213.3l81.6 128q1.8-1.2 3.5-2.4l-81.5-127.9c-0.7-1-2-1.3-3-0.7-1 0.7-1.3 2-0.6 3z"/>
					</g>
				</g>
			</g>
		</g>
		<g id="&lt;Group&gt;">
			<g id="&lt;Group&gt;">
				<path id="&lt;Path&gt;" class="s8" d="m674.4 259.4v580.3c0 18.1-14.7 32.9-32.9 32.9h-289c-9.1 0-17.4-3.7-23.3-9.7-5.9-6-9.6-14.2-9.6-23.2v-580.3c0-18.2 14.7-32.9 32.9-32.9h289c5.4 0 10.4 1.3 14.9 3.6 10.7 5.4 18 16.5 18 29.3z"/>
				<path id="&lt;Path&gt;" class="s9" d="m674.4 259.4v580.3c0 18.1-14.7 32.9-32.9 32.9h-289c-9.1 0-17.4-3.7-23.3-9.7l327.2-632.8c10.7 5.4 18 16.5 18 29.3z"/>
			</g>
			<g id="&lt;Group&gt;">
				<path id="&lt;Path&gt;" class="s9" d="m319.6 407.5h-1.6c-5.8 0-10.4-4.7-10.4-10.4v-55.8c0-5.8 4.6-10.4 10.4-10.4h1.6z"/>
				<path id="&lt;Path&gt;" class="s9" d="m674.4 387.5h1.3c4.7 0 8.6-3.9 8.6-8.6v-45.3c0-4.7-3.9-8.6-8.6-8.6h-1.3z"/>
				<path id="&lt;Path&gt;" class="s9" d="m319.6 494.6h-1.6c-5.8 0-10.4-4.7-10.4-10.5v-55.7c0-5.8 4.6-10.5 10.4-10.5h1.6z"/>
			</g>
			<g id="&lt;Group&gt;">
				<path id="&lt;Path&gt;" class="s4" d="m658 258v583.1c0 8.3-6.8 15.1-15.1 15.1h-291.8c-6.2 0-11.5-3.8-13.8-9.2-0.8-1.8-1.3-3.8-1.3-5.9v-583.1c0-8.3 6.8-15.1 15.1-15.1h291.8c2.2 0 4.3 0.5 6.2 1.3 5.2 2.4 8.9 7.7 8.9 13.8z"/>
			</g>
			<g id="&lt;Group&gt;">
				<g id="&lt;Group&gt;">
					<path id="&lt;Path&gt;" class="s0" d="m592.7 452.8c0 23.2-8.2 44.4-21.9 61-17.5 21.2-44.1 34.8-73.8 34.8-29.7 0-56.2-13.6-73.8-34.8-13.7-16.6-21.9-37.8-21.9-61 0-52.8 42.8-95.7 95.7-95.7 52.9 0 95.7 42.9 95.7 95.7z"/>
					<path id="&lt;Path&gt;" class="s4" d="m570.8 513.8c-17.5 21.2-44.1 34.8-73.8 34.8-29.7 0-56.2-13.6-73.8-34.8l1.3-2.5c2-4.1 4.9-7.7 8.4-10.6 3.4-2.9 7.4-5.1 11.8-6.5 15.6-4.7 30.1-9.5 38.2-23.5-9.9-4.6-16.5-13.9-19.2-20.4-10.9 2.3-18.6-17.8-12.8-23.1 2.2-2 4.4-2.6 6.3-2.5 1.8-20.3 19-38.6 39.8-38.6 20.9 0 38 18.3 39.8 38.6 1.9-0.1 4.2 0.5 6.4 2.5 5.8 5.3-2 25.4-12.9 23.1-2.3 7.3-10.4 16.1-17.8 19.2 8.1 13.9 21.2 20 36.8 24.7 4.4 1.4 8.4 3.6 11.9 6.5 3.4 2.9 6.3 6.5 8.3 10.6z"/>
				</g>
				<path id="&lt;Path&gt;" class="s0" d="m601 329.5h-208c-5.7 0-10.3-4.7-10.3-10.4v-3.2c0-5.6 4.6-10.3 10.3-10.3h208c5.7 0 10.4 4.7 10.4 10.3v3.2c0 5.7-4.7 10.4-10.4 10.4z"/>
				<g id="&lt;Group&gt;">
					<path id="&lt;Path&gt;" class="s0" d="m575.2 601.6h-156.4c-5.7 0-10.3-4.6-10.3-10.3v-3.2c0-5.7 4.6-10.3 10.3-10.3h156.4c5.7 0 10.3 4.6 10.3 10.3v3.2c0 5.7-4.6 10.3-10.3 10.3z"/>
					<path id="&lt;Path&gt;" class="s0" d="m575.2 646.5h-156.4c-5.7 0-10.3-4.7-10.3-10.3v-3.2c0-5.7 4.6-10.4 10.3-10.4h156.4c5.7 0 10.3 4.7 10.3 10.4v3.2c0 5.6-4.6 10.3-10.3 10.3z"/>
				</g>
				<g id="&lt;Group&gt;">
					<g id="&lt;Group&gt;">
						<path id="&lt;Path&gt;" class="s1" d="m539.9 726.3c0 21.1-17.1 38.1-38.1 38.1-21 0-38.1-17-38.1-38.1 0-21 17.1-38 38.1-38 21 0 38.1 17 38.1 38z"/>
					</g>
					<g id="&lt;Group&gt;">
						<path id="&lt;Path&gt;" class="s4" d="m522.9 711.8q-0.2-0.8-0.4-1.6-0.7-2.7-2.5-4.8-1.3-1.5-3.1-2.5c-1.5-0.9-3.3-0.6-4.5 0.8q-3.1 3.8-6.2 7.6c-1.2 1.6-1 3.7 0.5 5.1 1.1 1 2.3 1.9 3.5 2.8 0.1 0.2 0.3 0.2 0.4 0.3-2.7 7.4-7.4 13.2-14.1 17.3q-1.2-1-2.5-2.1-0.7-0.6-1.4-1.1c-1.3-1-2.9-1.1-4.3-0.2-0.4 0.3-0.8 0.7-1.1 1.1-1.9 2.3-3.7 4.6-5.6 6.9q-0.9 1-1.1 2.4 0 0.5 0.1 1c0.3 0.6 0.5 1.2 1 1.7 1.1 1.1 2.3 2.1 3.7 2.7 1.7 0.8 3.5 1.2 5.3 1.1 1.2-0.1 2.5-0.4 3.6-0.7 3.1-0.9 5.8-2.3 8.4-4.1 2.6-1.7 5-3.7 7.1-6 2.9-3 5.5-6.3 7.9-9.8 1.8-2.7 3.4-5.6 4.4-8.7 0.6-1.6 0.9-3.2 1-4.9q0.1-1 0.1-2-0.1-1.2-0.2-2.3z"/>
					</g>
				</g>
				<path id="&lt;Path&gt;" class="s0" d="m601 820.8h-208c-5.7 0-10.3-4.7-10.3-10.3v-3.2c0-5.7 4.6-10.4 10.3-10.4h208c5.7 0 10.4 4.7 10.4 10.4v3.2c0 5.6-4.7 10.3-10.4 10.3z"/>
			</g>
			<g id="&lt;Group&gt;">
				<path id="&lt;Path&gt;" class="s8" d="m582.1 271.9h-170.2c-8 0-14.5-6.5-14.5-14.4v-4.5c0-8 6.5-14.5 14.5-14.5h170.2c8 0 14.5 6.5 14.5 14.5v4.5c0 7.9-6.5 14.4-14.5 14.4z"/>
				<path id="&lt;Path&gt;" class="s9" d="m544.9 257.1h-112.3c-1.9 0-3.5-1.6-3.5-3.5v-1.1c0-2 1.6-3.6 3.5-3.6h112.3c1.9 0 3.5 1.6 3.5 3.6v1.1c0 1.9-1.6 3.5-3.5 3.5z"/>
				<path id="&lt;Path&gt;" class="s10" d="m577.5 252.8c0 2.7-2.2 4.9-4.9 4.9-2.8 0-5-2.2-5-4.9 0-2.8 2.2-5 5-5 2.7 0 4.9 2.2 4.9 5z"/>
			</g>
			<path id="&lt;Path&gt;" class="s11" d="m658 258v583.1c0 8.3-6.8 15.1-15.1 15.1h-291.8c-6.2 0-11.5-3.8-13.8-9.2l311.8-602.8c5.2 2.4 8.9 7.7 8.9 13.8z"/>
		</g>
		<g id="&lt;Group&gt;">
			<g id="&lt;Group&gt;">
				<g id="&lt;Group&gt;">
					<path id="&lt;Path&gt;" class="s12" d="m187.1 834v16.7l15.3-0.2 1-17.7z"/>
				</g>
				<g id="&lt;Group&gt;">
					<g id="&lt;Group&gt;">
						<g id="&lt;Group&gt;">
							<path id="&lt;Path&gt;" class="s5" d="m189.8 849.2c0 0-3.9-5.1-6.9-4.8-3 0.2-25.9 18.9-33.8 20.5-7.9 1.6-6.3 7.4-4.8 10.4 1.5 3 63.2-1.9 63.2-1.9 0 0 1.5-18.4-0.6-24-2.1-5.6-10.9 1-17.1-0.2z"/>
						</g>
						<g id="&lt;Group&gt;">
							<g id="&lt;Group&gt;">
								<g id="&lt;Group&gt;">
									<path id="&lt;Path&gt;" class="s4" d="m177.1 862.1c0.3 0.1 0.6 0.1 0.9-0.1 0.5-0.3 0.7-1 0.4-1.5-0.1-0.2-2.6-4.3-5.9-5.9-4.3-2.2-7.7 0.3-7.8 0.4-0.5 0.4-0.6 1.1-0.2 1.6 0.3 0.5 1 0.5 1.5 0.2 0.1-0.1 2.5-1.8 5.6-0.3 2.6 1.4 4.9 5.1 4.9 5.1q0.2 0.4 0.6 0.5z"/>
								</g>
							</g>
							<g id="&lt;Group&gt;">
								<g id="&lt;Group&gt;">
									<path id="&lt;Path&gt;" class="s4" d="m180.4 859c0.3 0.1 0.6 0 0.9-0.1 0.5-0.3 0.7-1 0.4-1.6-0.1-0.1-2.6-4.3-5.9-5.9-4.3-2.2-7.7 0.3-7.8 0.4-0.5 0.4-0.6 1.1-0.3 1.6 0.4 0.5 1.1 0.6 1.6 0.2 0.1-0.1 2.4-1.7 5.5-0.2 2.7 1.3 4.9 5 4.9 5.1q0.3 0.4 0.7 0.5z"/>
								</g>
							</g>
							<g id="&lt;Group&gt;">
								<g id="&lt;Group&gt;">
									<path id="&lt;Path&gt;" class="s4" d="m172.7 864.7c0.2 0.1 0.6 0.1 0.8-0.1 0.6-0.3 0.7-1 0.4-1.5-0.1-0.2-2.5-4.4-5.8-6-4.4-2.1-7.7 0.4-7.9 0.5-0.5 0.4-0.6 1.1-0.2 1.6 0.4 0.4 1.1 0.5 1.6 0.2 0.1-0.1 2.4-1.8 5.5-0.3 2.7 1.3 4.9 5.1 4.9 5.1q0.3 0.4 0.7 0.5z"/>
								</g>
							</g>
						</g>
					</g>
				</g>
				<g id="&lt;Group&gt;">
					<path id="&lt;Path&gt;" class="s1" d="m227.1 587.4c0 0-0.6 10.4-1.4 25.6-2.2 36.7-6.3 101.8-8.6 116.4-2.5 15-1.4 64.4-0.6 90.2 0.1 4.4-1.5 8.4-4.3 11.3q-1.6 1.7-3.6 2.8c-2.3 1.3-4.9 2-7.7 2h-11.7c-8.9 0-15.9-7.3-15.7-16.1 0.7-21.8 1.5-61.7 0-92.4-1.5-29.3 0.6-81.1 2.3-113.4 0.8-17 1.6-28.6 1.6-28.6l40.4 1.8 3.4 0.1z"/>
				</g>
				<g id="&lt;Group&gt;">
					<path id="&lt;Path&gt;" class="s2" d="m221.2 587.1l5.9 0.3c0 0-0.6 10.4-1.4 25.6-15.6 1.2-32.6 1.8-49.9 0.8 0.8-17 1.6-28.6 1.6-28.6l40.4 1.8z"/>
				</g>
				<g id="&lt;Group&gt;">
					<g id="&lt;Group&gt;">
						<path id="&lt;Path&gt;" class="s2" d="m212 773.5c0.4 16.6 0.9 33.6 0.6 47.4-0.1 3.9-0.3 7.2-0.4 10q-1.6 1.7-3.6 2.8c0.3-3.3 0.5-7.5 0.6-12.9 0.3-13.7-0.1-30.7-0.6-47.2-0.5-20.1-1-39.1 0.1-47.2 2.4-17.7 7.7-113.8 9.1-139.4l3.4 0.1c-1.4 25.6-6.8 121.9-9.2 139.7-1.1 7.9-0.6 26.8 0 46.7z"/>
					</g>
				</g>
			</g>
			<g id="&lt;Group&gt;">
				<g id="&lt;Group&gt;">
					<path id="&lt;Path&gt;" class="s12" d="m261.4 833.6l0.6 16.7 15.3-0.8 0.3-17.8z"/>
				</g>
				<g id="&lt;Group&gt;">
					<g id="&lt;Group&gt;">
						<g id="&lt;Group&gt;">
							<path id="&lt;Path&gt;" class="s5" d="m268.9 845.8c0 0 8.1-1.8 10.4-1.7 2.2 0.2 16.3 17.5 21.3 18.7 9 2.2 8.4 16.4 2.8 16.9-16.1 1.3-43.2-6.7-43.2-6.7 0 0-1.7-18.3-0.3-24 1.3-5.7 4.4-1.7 9-3.2z"/>
						</g>
						<g id="&lt;Group&gt;">
							<g id="&lt;Group&gt;">
								<g id="&lt;Group&gt;">
									<path id="&lt;Path&gt;" class="s4" d="m281.5 861.9c-0.3 0.1-0.6 0-0.9-0.2-0.5-0.3-0.6-1-0.2-1.5 0.1-0.2 3-4.1 6.4-5.3 4.6-1.7 7.7 1.1 7.8 1.3 0.4 0.4 0.5 1.1 0 1.5-0.4 0.5-1.1 0.5-1.5 0.1-0.1-0.1-2.3-2-5.5-0.8-2.8 1-5.4 4.5-5.4 4.5q-0.3 0.4-0.7 0.4z"/>
								</g>
							</g>
							<g id="&lt;Group&gt;">
								<g id="&lt;Group&gt;">
									<path id="&lt;Path&gt;" class="s4" d="m278.5 858.4c-0.2 0.1-0.6 0-0.8-0.2-0.5-0.3-0.6-1-0.2-1.5 0.1-0.2 3-4.1 6.4-5.3 4.6-1.7 7.6 1.2 7.8 1.3 0.4 0.4 0.4 1.1 0 1.5-0.4 0.5-1.1 0.5-1.6 0.1 0-0.1-2.2-2-5.4-0.8-2.8 1-5.4 4.5-5.5 4.5q-0.2 0.4-0.7 0.4z"/>
								</g>
							</g>
							<g id="&lt;Group&gt;">
								<g id="&lt;Group&gt;">
									<path id="&lt;Path&gt;" class="s4" d="m285.6 865c-0.3 0-0.6 0-0.8-0.2-0.5-0.4-0.6-1.1-0.3-1.6 0.2-0.1 3.1-4 6.5-5.3 4.5-1.6 7.6 1.2 7.7 1.3 0.5 0.4 0.5 1.1 0.1 1.6-0.4 0.4-1.1 0.5-1.6 0-0.1 0-2.2-2-5.5-0.8-2.8 1-5.4 4.5-5.4 4.5q-0.3 0.4-0.7 0.5z"/>
								</g>
							</g>
						</g>
					</g>
				</g>
				<g id="&lt;Group&gt;">
					<path id="&lt;Path&gt;" class="s1" d="m291.2 727.2c-1.6 30.7-0.8 70.6-0.1 92.4 0.3 8.8-6.8 16.1-15.6 16.1h-11.7c-2.6 0-5.1-0.6-7.2-1.7q-2-1-3.6-2.5c-3.1-3-5-7.2-4.9-11.9 0.8-25.8 1.9-75.2-0.5-90.2-2.4-14.8-6.6-81.3-8.7-117.8-0.9-14.4-1.4-24.2-1.4-24.2l6.5-0.3 3.3-0.2 40-1.7c0 0 0.4 6.9 1 17.9 1.6 30.2 4.5 91.3 2.9 124.1z"/>
				</g>
				<g id="&lt;Group&gt;">
					<path id="&lt;Path&gt;" class="s2" d="m288.3 603.1c-10.8 2.5-28.3 6.1-49.4 8.5-0.9-14.4-1.4-24.2-1.4-24.2l6.5-0.3 3.3-0.2 40-1.7c0 0 0.4 6.9 1 17.9z"/>
				</g>
				<g id="&lt;Group&gt;">
					<g id="&lt;Group&gt;">
						<path id="&lt;Path&gt;" class="s2" d="m255.9 820.8c0.1 5.6 0.4 9.9 0.7 13.2q-2-1-3.6-2.5c-0.2-3-0.3-6.5-0.4-10.6-0.3-13.8 0.1-30.8 0.6-47.4 0.5-19.9 1-38.8-0.1-46.7-2.4-17.8-7.7-114.1-9.1-139.7l3.3-0.2c1.4 25.7 6.8 121.8 9.2 139.5 1.1 8.1 0.5 27.1 0 47.2-0.4 16.5-0.9 33.5-0.6 47.2z"/>
					</g>
				</g>
			</g>
			<g id="&lt;Group&gt;">
				<path id="&lt;Path&gt;" class="s9" d="m263.9 290.7c0 18.2-11.2 30.8-29.4 30.8-18.3 0-31-13.5-31-31.7 0-5.1 0.9-9.8 2.4-13.9q0.2-0.4 0.3-0.8 0.3-0.7 0.6-1.4 0.5-1 1.1-2c4.7-8.6 13.2-14 24.7-14 21.8 0 31.3 14.8 31.3 33z"/>
				<g id="&lt;Group&gt;">
					<g id="&lt;Group&gt;">
						<path id="&lt;Path&gt;" class="s13" d="m259.8 298.6c0 0 5.1-6.8 8.9-1.2 3.7 5.6-1.6 22.1-10.8 18z"/>
					</g>
					<path id="&lt;Path&gt;" class="s9" d="m265.9 315.1c0 1.1-0.9 2-2 2-1.1 0-1.9-0.9-1.9-2 0-1 0.8-1.9 1.9-1.9 1.1 0 2 0.9 2 1.9z"/>
					<g id="&lt;Group&gt;">
						<g id="&lt;Group&gt;">
							<path id="&lt;Path&gt;" class="s14" d="m259.9 310.3c0.3 0 0.7-0.2 0.7-0.5 1.5-5.1 6.8-7.2 6.8-7.2 0.4-0.2 0.6-0.6 0.5-1-0.2-0.4-0.6-0.6-1-0.5-0.3 0.1-6.1 2.4-7.8 8.3-0.1 0.4 0.2 0.8 0.6 0.9q0.1 0 0.2 0z"/>
						</g>
					</g>
					<g id="&lt;Group&gt;">
						<g id="&lt;Group&gt;">
							<path id="&lt;Path&gt;" class="s14" d="m265.2 307.8q0.2 0 0.4-0.1c0.4-0.3 0.5-0.8 0.3-1.1-0.1-0.1-1-1.5-2.9-2.4-0.4-0.2-0.9 0-1.1 0.4-0.2 0.4 0 0.9 0.4 1 1.5 0.7 2.3 1.8 2.3 1.8 0.1 0.2 0.4 0.4 0.6 0.4z"/>
						</g>
					</g>
				</g>
				<g id="&lt;Group&gt;">
					<g id="&lt;Group&gt;">
						<path id="&lt;Path&gt;" class="s13" d="m207.6 298.6c0 0-5-6.8-8.8-1.2-3.8 5.6 1.6 22.1 10.8 18z"/>
					</g>
					<path id="&lt;Path&gt;" class="s9" d="m206.2 315.1c0 1.1-0.8 2-1.9 2-1.1 0-2-0.9-2-2 0-1 0.9-1.9 2-1.9 1.1 0 1.9 0.9 1.9 1.9z"/>
					<g id="&lt;Group&gt;">
						<g id="&lt;Group&gt;">
							<path id="&lt;Path&gt;" class="s14" d="m207.6 310.3c-0.4 0-0.7-0.2-0.8-0.5-1.4-5.1-6.7-7.2-6.7-7.2-0.4-0.2-0.6-0.6-0.5-1 0.2-0.4 0.6-0.6 1-0.5 0.3 0.1 6.1 2.4 7.7 8.3 0.1 0.4-0.1 0.8-0.5 0.9q-0.1 0-0.2 0z"/>
						</g>
					</g>
					<g id="&lt;Group&gt;">
						<g id="&lt;Group&gt;">
							<g id="&lt;Group&gt;">
								<path id="&lt;Path&gt;" class="s14" d="m202.2 307.8q-0.2 0-0.4-0.1c-0.3-0.3-0.4-0.8-0.2-1.1 0-0.1 1-1.5 2.9-2.4 0.4-0.2 0.9 0 1 0.4 0.2 0.4 0 0.9-0.4 1-1.5 0.7-2.2 1.8-2.2 1.8-0.2 0.2-0.4 0.4-0.7 0.4z"/>
							</g>
						</g>
					</g>
				</g>
				<g id="&lt;Group&gt;">
					<path id="&lt;Path&gt;" class="s12" d="m221.3 329.4v16.4c0 0 4.9 8.4 11.5 9 6.6 0.5 12.5-7.2 12.5-7.2v-17z"/>
				</g>
				<g id="&lt;Group&gt;">
					<path id="&lt;Path&gt;" class="s13" d="m221.3 329.4v7.3c4.4 4.9 12.3 6.2 24 4.4v-10.5z"/>
				</g>
				<g id="&lt;Group&gt;">
					<path id="&lt;Path&gt;" class="s12" d="m204 287.3c0.3 6.4 0.9 14.3 2.1 20.7q0.5 2.4 1 4.4c3.5 12.1 12.1 32.9 36.3 24.2 10.7-3.8 15.6-15.7 17.8-27.8 1.5-8.2 1.7-16.5 1.6-22.4-0.1-6.1-3.4-11.6-8.7-14.6-14.2-8.1-29.3-5.1-39.2-1.2-6.9 2.6-11.3 9.4-10.9 16.7z"/>
				</g>
				<path id="&lt;Path&gt;" class="s9" d="m244.1 300.7c0 1.7 0.9 3.2 2 3.2 1.1 0 2-1.5 2-3.2 0-1.8-0.9-3.2-2-3.2-1.1 0-2 1.4-2 3.2z"/>
				<path id="&lt;Path&gt;" class="s9" d="m220.3 300.6c0 1.8 0.9 3.2 2.1 3.2 1.1 0 2-1.4 2-3.2 0-1.7-0.9-3.1-2-3.1-1.2 0-2.1 1.4-2.1 3.1z"/>
				<path id="&lt;Path&gt;" class="s9" d="m215.8 289.7c0 0 6.3-2.5 11.2-0.4l-0.4 2.8c0 0-7.2-0.6-10.9 0.8-0.3-1-0.3-2.1 0.1-3.2z"/>
				<path id="&lt;Path&gt;" class="s9" d="m252.8 289.7c0 0-6.3-2.5-11.2-0.4l0.5 2.8c0 0 7.2-0.6 10.8 0.8 0.3-1 0.4-2.1-0.1-3.2z"/>
				<g id="&lt;Group&gt;">
					<g id="&lt;Group&gt;">
						<path id="&lt;Path&gt;" class="s13" d="m233.5 314c-1.4 0-2.7-0.5-2.9-0.6-0.4-0.2-0.5-0.6-0.4-1 0.2-0.4 0.6-0.6 1-0.5 0.7 0.3 2.4 0.8 3.2 0.3 0.1 0 0.3-0.2 0.3-0.7 0.3-2.7-0.4-11.8-0.4-11.9-0.1-0.4 0.3-0.8 0.7-0.9 0.4 0 0.8 0.3 0.8 0.8 0.1 0.3 0.8 9.3 0.5 12.2-0.1 1.1-0.7 1.6-1.1 1.9-0.5 0.3-1.1 0.4-1.7 0.4z"/>
					</g>
				</g>
				<path id="&lt;Path&gt;" class="s4" d="m243.9 317.9c-1.3 4.5-5 9-10 9.1-5.1-0.1-8.8-4.6-10.1-9.1z"/>
				<g id="&lt;Group&gt;">
					<g id="&lt;Group&gt;">
						<path id="&lt;Path&gt;" class="s13" d="m234.3 331.9c-2 0-3.7-1.1-3.8-1.1-0.4-0.2-0.5-0.7-0.3-1.1 0.3-0.3 0.7-0.5 1.1-0.2 0 0 1.4 0.8 3 0.8 1.5 0 2.8-0.8 2.8-0.8 0.4-0.3 0.9-0.1 1.1 0.2 0.2 0.4 0.1 0.9-0.2 1.1-0.1 0-1.8 1.1-3.7 1.1z"/>
					</g>
				</g>
				<path id="&lt;Path&gt;" class="s9" d="m204.8 298.7h3.5c-0.4-3.6-0.9-9.8 2-10.7 9.2-2.8-2.7-9.3 1.4-12.6 4.2-3.2 14.5-1.8 21.7-2.1 7.2-0.2 18.9-0.1 21.7 0.6 2.8 0.6 1.3 5.3 0.2 8.9-1 3.7 3.5 7.7 4.2 11.5 0.3 1 0.2 2.7 0 4.4h3c0.3-4.6 0.4-8.9 0.3-12.3-0.1-6.1-3.4-11.6-8.7-14.6-14.2-8.1-29.3-5.1-39.2-1.2-6.9 2.6-11.3 9.4-10.9 16.7 0.1 3.5 0.4 7.5 0.8 11.4z"/>
			</g>
			<g id="&lt;Group&gt;">
				<g id="&lt;Group&gt;">
					<g id="&lt;Group&gt;">
						<g id="&lt;Group&gt;">
							<path id="&lt;Path&gt;" class="s5" d="m300.2 592.9q-24.7 6.3-49.5 7.9-12.8 0.9-25.6 0.5-7.8-0.2-15.5-0.8-5.8-0.5-11.5-1.3-16.5-2.1-33.1-6.3c-0.2-17.1-0.4-86.7 0.9-142.5q0.1-0.8 0.1-1.6 0-1.1 0-2.1 0.2-5 0.3-9.9 0.1-1.6 0.1-3.1 0-0.2 0-0.4 0.1-1.5 0.1-3c1.1-28.6 2.6-50.4 5.1-53.7 1.6-2.3 5-5 9.3-7.8 4.3-2.8 9.5-5.8 14.8-8.6 3.5-1.9 7.1-3.8 10.5-5.6 2.1-1.1 4.2-2.2 6.1-3.3 3.9-2 7-3.8 9.1-5.3 0.8 1.3 5.3 8.2 11.4 8.8 6.6 0.5 12.5-7.2 12.5-7.2v-1.5c3 2.1 8.2 5 14.2 8.2 12.4 6.7 27.9 15 32.4 21.2 2.7 3.7 4.6 29.7 5.9 62.8q0 1.3 0.1 2.7c2.1 57.3 2.5 134 2.3 151.9z"/>
						</g>
					</g>
				</g>
				<g id="&lt;Group&gt;">
					<path id="&lt;Path&gt;" class="s6" d="m280.8 424.9h-27v-5.8h27z"/>
				</g>
				<path id="&lt;Path&gt;" class="s4" d="m259.5 354.3c-1.8 9.6-3 23.2-4 38.4q-0.1 1-0.2 2.1c-1.4 23-2.4 49.3-3.9 71.2-0.9 11.3-1.2 28.3-1.4 47.2q0 2.4 0 4.8c0 6.8 0 13.9 0 21q0 1.3 0 2.6c0.1 21.3 0.4 42.5 0.7 59.2q-12.8 0.9-25.6 0.5-7.8-0.2-15.5-0.8c-0.3-11.4 0-26.5 0.6-43.1q0-1 0.1-2.1c1.6-45.6 5.2-102 5.7-125.8 0.6-27.5-6.4-60.4-9.8-74.9 2.1-1.1 4.2-2.2 6.1-3.3 3.9-2 7-3.8 9.1-5.3 0.8 1.3 5.3 8.2 11.4 8.8 6.6 0.5 12.5-7.2 12.5-7.2v-1.5c3 2.1 8.2 5 14.2 8.2z"/>
				<g id="&lt;Group&gt;">
					<path id="&lt;Path&gt;" class="s0" d="m250 541.6c-9.6 7.5-22.6 13.9-39.8 15.8q0-1 0.1-2.1c17.4-2 30.3-8.7 39.7-16.3q0 1.3 0 2.6z"/>
				</g>
				<g id="&lt;Group&gt;">
					<path id="&lt;Path&gt;" class="s0" d="m250 513.2q0 2.4 0 4.8-0.9 1.6-2.2 3.4c-4.2 6-12.1 13.9-26.1 17.7q-0.2 0.1-0.3 0.1c-0.5 0-0.9-0.4-1-0.8-0.2-0.6 0.2-1.1 0.7-1.3 18.2-4.9 26-17.2 28.9-23.9z"/>
				</g>
				<g id="&lt;Group&gt;">
					<path id="&lt;Path&gt;" class="s0" d="m255.5 392.7q-0.1 1-0.2 2.1c-13.2-2.3-23.6-8.2-30.4-13.2-9.2-6.6-14-13.1-14.2-13.4-0.4-0.4-0.3-1.1 0.2-1.4 0.5-0.4 1.1-0.3 1.5 0.2 0.1 0.2 15.8 20.8 43.1 25.7z"/>
				</g>
				<g id="&lt;Group&gt;">
					<path id="&lt;Path&gt;" class="s6" d="m216 429.5c-0.5 23.8-4.1 80.2-5.7 125.8q-0.1 1.1-0.1 2.1c-0.6 16.6-0.9 31.7-0.6 43.1q-5.8-0.5-11.5-1.3c1.4-36.8 5.6-138.4 7.5-159.2 1.8-19.6-6.2-61.7-9.9-79.8 12.8-13.1 25.6-20.2 25.6-20.2v5.8q-0.2 0.2-0.3 0.4 0.2-0.1 0.4-0.2c-10 15.5-4.8 56-5.4 83.5z"/>
				</g>
				<g id="&lt;Group&gt;">
					<path id="&lt;Path&gt;" class="s6" d="m256.8 600.5q5.8-0.5 11.5-1.3c-1.4-36.8-5.6-138.4-7.5-159.2-1.8-19.6 6.2-61.7 9.9-79.8-12.8-13.1-25.4-20.2-25.4-20.2v5.7 0.4c10 15.4 4.5 55.9 5.1 83.4 0.5 23.8-1.9 79.7-0.3 125.3l0.6 46z"/>
				</g>
			</g>
			<g id="&lt;Group&gt;">
				<g id="&lt;Group&gt;">
					<path id="&lt;Path&gt;" class="s12" d="m161.7 427.1c0 0-28.6 22.1-52.9 17.7-7.1-1.3-48.1-58.9-48.1-58.9l7.1-9.3c0 0 17.1 15.8 26.7 24.8 7.9 7.5 17 16.9 19.9 20.1 0.7 0.7 1 1 1 1q0.6-0.6 1.3-1.2c11.8-11.4 32-22.4 32-22.4z"/>
				</g>
				<g id="&lt;Group&gt;">
					<g id="&lt;Group&gt;">
						<g id="&lt;Group&gt;">
							<path id="&lt;Path&gt;" class="s13" d="m115.8 433.3c0 0.6-0.5 1.1-1.1 1.1-0.6 0-1.1-0.5-1.1-1.1-0.1-3.1 0.3-7.4 0.8-11.8 0.7 0.7 1 1 1 1q0.6-0.6 1.3-1.2c-0.6 4.5-1 8.9-0.9 12z"/>
						</g>
					</g>
				</g>
				<g id="&lt;Group&gt;">
					<path id="&lt;Path&gt;" class="s5" d="m173 375.1c0 0 18-1.2 12.6 28.1-5 27.9-45.5 49.3-45.5 49.3l-15.5-40.5c0 0 28.9-24 48.4-36.9z"/>
				</g>
				<g id="&lt;Group&gt;">
					<g id="&lt;Group&gt;">
						<path id="&lt;Path&gt;" class="s6" d="m187.2 414.7c-3.2 4.5-9.9 11.4-14.9 16.4-1.7 1.7-3.3 3.1-4.4 4.2-0.5 0.4-1.1 1-1.6 1.5q0.1-1.6 0.1-3.1 0.3-0.3 0.5-0.5c4.6-4.4 14.6-14.1 18.5-19.8 0.3-0.5 1-0.6 1.5-0.3 0.5 0.4 0.6 1.1 0.3 1.6z"/>
					</g>
				</g>
				<g id="&lt;Group&gt;">
					<path id="&lt;Path&gt;" class="s12" d="m33.3 359.8c1.2-0.4 4.8 2.3 8 5.1q0.2-0.2 0.3-0.3c-3.9-4.2-10.4-11.7-7.7-12.4 1.7-0.4 7.5 5.8 10.9 9.6q0.3-0.3 0.6-0.5c-3.9-4.6-11.3-13.9-8.2-14.5 2-0.4 8.6 7.6 11.9 11.8q0.3-0.2 0.6-0.4c-3.2-4-9-12-6-12.6 2.8-0.6 11.1 12.2 11.1 12.2l3.7 4.4c0 0 1.7-1 0.7-5.2-1.1-4.2 0.4-7.3 2.9-2.7 2.8 5.2 3.7 10.6 5.8 14.1 2.1 3.5 0 8.8 0 8.8l-6.7 8.7c0 0-16.5-8.7-21.5-17.1-3.9-3.6-8.4-8.2-6.4-9z"/>
				</g>
			</g>
			<g id="&lt;Group&gt;">
				<g id="&lt;Group&gt;">
					<g id="&lt;Group&gt;">
						<path id="&lt;Path&gt;" class="s12" d="m339.5 617.2c0.6 6-6.7 2.7-4.6-9.4 2-12.1-3.8-23.1-6.3-22.8-2.6 0.4 2.1 13.3-0.2 17.9-2.2 4.7-5.1-4.3-8-9.8-3-5.7-2.8-18.1-1.5-27 1.4-8.8-14.7-62.6-14.7-78.2l-2-6.6-7.2-24.2-11.2-37.9c0 0 6.7-28.7 18.1-26.2 0 0 6 19.9 12.4 42.5 1.1 3.8 2.2 7.7 3.2 11.6 4.6 16.3 8.9 32.5 10.9 42 5.3 25.3 5.7 77.8 5.7 77.8 0 0 9.3 19.3 9.5 27.9 0.2 9.1-4.6 16.4-4.1 22.4z"/>
					</g>
					<g id="&lt;Group&gt;">
						<path id="&lt;Path&gt;" class="s13" d="m317.5 447.1l-15.3 34.2-7.2-24.2 19.3-21.6c1.1 3.8 2.2 7.7 3.2 11.6z"/>
					</g>
				</g>
				<g id="&lt;Group&gt;">
					<path id="&lt;Path&gt;" class="s5" d="m318.3 436.9c-6.7 11.5-13.6 23-20.4 34.5-2.2-7.5-4.6-14.7-6.7-21.4q0 0-0.1 0-1.3-4-2.5-7.7 0 0 0-0.1-0.5-1.3-0.9-2.5c-3.2-9.9-5.8-17.7-6.5-22.2-1.9-12.3 2.6-34.1 9.4-40.3l0.7-0.6c0.5-0.2 0.6-0.6 1.1-0.1 2.3 2.3 7.9 10.3 10.8 17.6q0.5 1.4 1.1 2.9c4.2 10.7 9.3 24.6 14 39.9z"/>
				</g>
			</g>
			<g id="&lt;Group&gt;">
				<g id="&lt;Group&gt;">
					<g id="&lt;Group&gt;">
						<g id="&lt;Group&gt;">
							<path id="&lt;Path&gt;" class="s6" d="m298.9 478.2c-2.2-9.2-5-19.4-7.7-28.2q0 0-0.1 0c-0.8-2.7-1.7-5.3-2.5-7.7q0 0 0-0.1-0.4-1.1-0.8-2.2-0.1-0.1-0.1-0.3c0-0.5 0.3-0.8 0.7-1 0.5-0.2 1.2 0.1 1.3 0.6 2.9 7.7 6.2 18.9 9.1 29.8q0.1 4.5 0.1 9.1z"/>
						</g>
					</g>
				</g>
			</g>
		</g>
		<g id="&lt;Group&gt;">
			<g id="&lt;Group&gt;">
				<path id="&lt;Path&gt;" class="s1" d="m925 648.6v224h-324.2v-224z"/>
				<g id="&lt;Group&gt;">
					<path id="&lt;Path&gt;" class="s2" d="m731.6 764.5l-121.5 108.1h-9.3v-5.7l123.8-110.2z"/>
				</g>
				<g id="&lt;Group&gt;">
					<path id="&lt;Path&gt;" class="s2" d="m925 867.6v5h-10.3l-121.4-108.1 6.9-7.8z"/>
				</g>
				<path id="&lt;Path&gt;" class="s3" d="m600.7 648.6l162.2 144.2 162.1-144.2z"/>
			</g>
		</g>
		<g id="&lt;Group&gt;">
			<g id="&lt;Group&gt;">
				<g id="&lt;Group&gt;">
					<path id="&lt;Path&gt;" class="s12" d="m726.7 410.4l-19.7 66.5-0.4 1.2q0 0.5 0 1c-0.7 16.5-15.8 67.5-14.5 76.1 1.3 8.7 1.5 20.9-1.4 26.5-2.9 5.4-5.7 14.3-7.9 9.7-2.3-4.5 2.3-17.2-0.2-17.6-2.5-0.3-8.2 10.5-6.2 22.4 2 12-5.2 15.2-4.6 9.3 0.5-5.9-4.2-13.1-4-22.1 0.2-8.4 9.4-27.5 9.4-27.5 0 0 0.4-51.7 5.6-76.6 5.2-24.9 26.1-94.7 26.1-94.7 11.2-2.4 17.8 25.8 17.8 25.8z"/>
				</g>
				<g id="&lt;Group&gt;">
					<g id="&lt;Group&gt;">
						<g id="&lt;Group&gt;">
							<path id="&lt;Path&gt;" class="s13" d="m707 476.9l-0.4 1.2q0 0.5 0 1c-3.7-1.3-7.3-2.4-10-2.9-0.6-0.1-1-0.7-0.8-1.3 0.1-0.6 0.6-1 1.2-0.9 2.7 0.5 6.3 1.6 10 2.9z"/>
						</g>
					</g>
				</g>
			</g>
			<g id="&lt;Group&gt;">
				<g id="&lt;Group&gt;">
					<path id="&lt;Path&gt;" class="s12" d="m797.6 410.4l19.7 66.5 0.4 1.2q0 0.5 0 1c0.7 16.5 15.8 67.5 14.5 76.1-1.3 8.7-1.5 20.9 1.4 26.5 2.9 5.4 5.7 14.3 8 9.7 2.2-4.5-2.4-17.2 0.1-17.6 2.5-0.3 8.2 10.5 6.2 22.4-2 12 5.2 15.2 4.6 9.3-0.5-5.9 4.2-13.1 4-22.1-0.2-8.4-9.4-27.5-9.4-27.5 0 0-0.4-51.7-5.6-76.6-5.2-24.9-26.1-94.7-26.1-94.7-11.2-2.4-17.8 25.8-17.8 25.8z"/>
				</g>
				<g id="&lt;Group&gt;">
					<g id="&lt;Group&gt;">
						<g id="&lt;Group&gt;">
							<path id="&lt;Path&gt;" class="s13" d="m817.3 476.9l0.4 1.2q0 0.5 0 1c3.7-1.3 7.3-2.4 10-2.9 0.6-0.1 1-0.7 0.8-1.3-0.1-0.6-0.6-1-1.2-0.9-2.7 0.5-6.3 1.6-10 2.9z"/>
						</g>
					</g>
				</g>
			</g>
			<g id="&lt;Group&gt;">
				<g id="&lt;Group&gt;">
					<path id="&lt;Path&gt;" class="s13" d="m722.2 837.4v20h14.9l1.2-21.3z"/>
				</g>
				<g id="&lt;Group&gt;">
					<path id="&lt;Path&gt;" class="s5" d="m757 563.8c0 0-8.4 144.7-11.8 176.8-4.1 39.6-4.3 99.6-4.3 99.6h-21.7c-2.9-58.7-8.5-263.1-8.5-263.1l36.6-10.5 2.9-0.8z"/>
				</g>
				<g id="&lt;Group&gt;">
					<g id="&lt;Group&gt;">
						<path id="&lt;Path&gt;" class="s6" d="m750.2 565.8c-1.7 35.8-5.8 119-8.8 149.6-2.5 25.7-4.9 96.4-5.8 124.8h-2.8c0.9-28.4 3.3-99.3 5.8-125 2.9-30.3 7-112.3 8.7-148.6z"/>
					</g>
					<g id="&lt;Group&gt;">
						<path id="&lt;Path&gt;" class="s6" d="m716.8 832.3l0.9 10h26.2l0.7-10z"/>
					</g>
				</g>
				<g id="&lt;Group&gt;">
					<g id="&lt;Group&gt;">
						<g id="&lt;Group&gt;">
							<path id="&lt;Path&gt;" class="s5" d="m725.8 856c0 0-3.8-5-6.8-4.8-3 0.3-26 18.9-33.9 20.5-7.9 1.6-6.3 7.5-4.8 10.4 1.5 3 63.2-1.8 63.2-1.8 0 0 1.5-18.4-0.6-24-2-5.6-10.9 0.9-17.1-0.3z"/>
						</g>
						<g id="&lt;Group&gt;">
							<g id="&lt;Group&gt;">
								<g id="&lt;Group&gt;">
									<path id="&lt;Path&gt;" class="s4" d="m713.1 869c0.3 0.1 0.6 0 0.9-0.1 0.5-0.3 0.7-1 0.4-1.6-0.1-0.1-2.6-4.3-5.8-5.9-4.4-2.2-7.8 0.3-7.9 0.4-0.5 0.4-0.6 1.1-0.2 1.6 0.4 0.5 1.1 0.6 1.6 0.2 0-0.1 2.4-1.7 5.5-0.2 2.7 1.3 4.9 5 4.9 5.1q0.2 0.4 0.6 0.5z"/>
								</g>
							</g>
							<g id="&lt;Group&gt;">
								<g id="&lt;Group&gt;">
									<path id="&lt;Path&gt;" class="s4" d="m716.4 865.8c0.3 0.1 0.6 0.1 0.9-0.1 0.5-0.3 0.7-1 0.4-1.5-0.1-0.2-2.6-4.4-5.9-6-4.3-2.1-7.7 0.4-7.8 0.5-0.5 0.3-0.6 1-0.2 1.5 0.3 0.5 1 0.6 1.5 0.2 0.1 0 2.5-1.7 5.6-0.2 2.6 1.3 4.8 5.1 4.9 5.1q0.2 0.4 0.6 0.5z"/>
								</g>
							</g>
							<g id="&lt;Group&gt;">
								<g id="&lt;Group&gt;">
									<path id="&lt;Path&gt;" class="s4" d="m708.7 871.6c0.3 0 0.6 0 0.9-0.1 0.5-0.4 0.7-1 0.4-1.6-0.1-0.1-2.6-4.3-5.9-5.9-4.4-2.2-7.7 0.3-7.8 0.4-0.5 0.4-0.6 1.1-0.3 1.6 0.4 0.5 1.1 0.6 1.6 0.2 0.1-0.1 2.4-1.7 5.5-0.2 2.7 1.3 4.9 5 4.9 5.1q0.3 0.3 0.7 0.5z"/>
								</g>
							</g>
						</g>
					</g>
				</g>
			</g>
			<g id="&lt;Group&gt;">
				<g id="&lt;Group&gt;">
					<path id="&lt;Path&gt;" class="s13" d="m788.3 839.5l0.6 16.7 15.3-0.8 0.3-17.7z"/>
				</g>
				<g id="&lt;Group&gt;">
					<g id="&lt;Group&gt;">
						<g id="&lt;Group&gt;">
							<path id="&lt;Path&gt;" class="s5" d="m795.8 851.7c0 0 8.1-1.8 10.3-1.6 2.3 0.1 16.4 17.5 21.4 18.7 9 2.1 8.4 16.4 2.8 16.8-16.1 1.3-43.2-6.7-43.2-6.7 0 0-1.7-18.3-0.3-24 1.3-5.6 4.4-1.7 9-3.2z"/>
						</g>
						<g id="&lt;Group&gt;">
							<g id="&lt;Group&gt;">
								<g id="&lt;Group&gt;">
									<path id="&lt;Path&gt;" class="s4" d="m808.3 867.9c-0.3 0-0.6 0-0.8-0.2-0.5-0.4-0.6-1.1-0.2-1.6 0.1-0.1 3-4 6.4-5.3 4.6-1.6 7.6 1.2 7.8 1.3 0.4 0.4 0.4 1.1 0 1.6-0.4 0.4-1.1 0.5-1.6 0 0 0-2.2-2-5.4-0.8-2.8 1-5.4 4.5-5.5 4.5q-0.2 0.4-0.7 0.5z"/>
								</g>
							</g>
							<g id="&lt;Group&gt;">
								<g id="&lt;Group&gt;">
									<path id="&lt;Path&gt;" class="s4" d="m805.4 864.4c-0.3 0-0.6 0-0.8-0.2-0.5-0.4-0.6-1.1-0.3-1.6 0.2-0.1 3.1-4 6.5-5.3 4.6-1.6 7.6 1.2 7.7 1.3 0.5 0.4 0.5 1.1 0.1 1.6-0.4 0.4-1.1 0.5-1.6 0-0.1 0-2.2-2-5.5-0.8-2.8 1-5.4 4.5-5.4 4.5q-0.3 0.4-0.7 0.5z"/>
								</g>
							</g>
							<g id="&lt;Group&gt;">
								<g id="&lt;Group&gt;">
									<path id="&lt;Path&gt;" class="s4" d="m812.5 870.9c-0.3 0.1-0.6 0-0.9-0.2-0.4-0.3-0.6-1-0.2-1.5 0.1-0.2 3-4.1 6.5-5.3 4.5-1.7 7.6 1.1 7.7 1.3 0.5 0.4 0.5 1.1 0.1 1.5-0.5 0.5-1.2 0.5-1.6 0.1-0.1-0.1-2.2-2-5.5-0.8-2.8 1-5.4 4.5-5.4 4.5q-0.3 0.4-0.7 0.4z"/>
								</g>
							</g>
						</g>
					</g>
				</g>
				<g id="&lt;Group&gt;">
					<path id="&lt;Path&gt;" class="s5" d="m815.4 577.1c0 0-5.7 204.4-8.5 263.1h-19.8c-1.2-0.3-3.3-63-3-93.9 0.2-27-15.1-182.5-15.1-182.5l5.8 1.7 2.9 0.8z"/>
				</g>
				<g id="&lt;Group&gt;">
					<g id="&lt;Group&gt;">
						<path id="&lt;Path&gt;" class="s6" d="m792.2 794.5c-0.3 16.5-0.5 32.5-0.3 45.7h-2.8c-0.3-13.2 0-29.2 0.3-45.8 0.5-27.8 1-56.5-1-76-3.3-33.8-11.9-132.7-13.6-152.9l2.9 0.8c1.9 22.5 10.2 118.6 13.5 151.8 2 19.7 1.5 48.5 1 76.4z"/>
					</g>
					<g id="&lt;Group&gt;">
						<path id="&lt;Path&gt;" class="s6" d="m782.4 832.3l1 10h26.1l0.8-10z"/>
					</g>
				</g>
			</g>
			<g id="&lt;Group&gt;">
				<path id="&lt;Path&gt;" class="s15" d="m817.9 580.9c-21.2 4.9-38.4 7.4-55.3 7.6q-0.1 0-0.3 0-0.1 0-0.3 0c-16.9-0.2-34-2.7-55.3-7.6-2.9-38 10.1-62.1 8.6-104.7q0-0.5 0-1.1-0.1-2.7-0.3-5.5-0.2-5.2-0.6-10.2-0.2-2.8-0.4-5.5c-2.9-36.8-8.7-65.9-5.6-69.9 3.5-4.4 12.2-9.5 21.1-14.2 8.4-4.5 16.9-8.7 21.2-11.5 4.3 1.8 7.7 2.8 11.3 2.8q0.1 0 0.3 0 0.2 0 0.3 0c3.7 0 7-1 11.3-2.8 4 2.6 11.4 6.3 19.1 10.3 9.2 4.9 18.7 10.3 22.4 14.9 3.3 4.2-2.6 36.1-5.2 75.2q-0.2 2.6-0.4 5.3-0.3 5.8-0.5 11.7 0 0.3 0 0.5-0.1 2.4-0.1 4.6c-0.4 39.8 11.5 63.5 8.7 100.1z"/>
				<g id="&lt;Group&gt;">
					<g id="&lt;Group&gt;">
						<path id="&lt;Path&gt;" class="s2" d="m810.2 458.7q-0.2 2.6-0.4 5.3c-4.8 2.6-10.2 3.8-16.2 3.8q-2.3 0-4.7-0.2c-10.7-1.1-21.6-5.6-31.2-9.6-5.2-2.2-10.1-4.2-14.4-5.4-14.4-4.2-24.1 2.3-28.9 6.8q-0.2-2.8-0.4-5.5 1.3-1 2.9-2c5.6-3.6 15.1-7.2 27.6-3.6 4.5 1.3 9.5 3.4 14.8 5.6 16.9 7 35.7 14.8 50.9 4.8z"/>
					</g>
					<g id="&lt;Group&gt;">
						<path id="&lt;Path&gt;" class="s2" d="m809.3 475.7q0 0.3 0 0.5-0.1 2.4-0.1 4.6c-4.7 2.4-9.9 3.5-15.6 3.5q-2.3 0-4.7-0.2c-10.7-1.1-21.6-5.6-31.2-9.6-5.2-2.2-10.1-4.2-14.4-5.4-13.6-4-23 1.6-28 6q-0.1-2.7-0.3-5.5 0.9-0.6 1.9-1.2c5.6-3.6 15.1-7.2 27.6-3.6 4.5 1.3 9.5 3.4 14.8 5.6 16.6 6.9 35 14.5 50 5.3z"/>
					</g>
				</g>
				<g id="&lt;Group&gt;">
					<g id="&lt;Group&gt;">
						<path id="&lt;Path&gt;" class="s2" d="m796.6 532.8q0 0 0 0c-21.4 0-39.6-9.8-51.1-17.9-12.5-8.8-20.1-17.7-20.1-17.8-0.4-0.5-0.4-1.1 0.1-1.5 0.4-0.3 1.1-0.3 1.4 0.2 0.1 0 7.5 8.8 19.8 17.4 11.3 8 29.1 17.5 49.9 17.6 0.6 0 1 0.5 1 1 0 0.6-0.4 1-1 1z"/>
					</g>
				</g>
				<g id="&lt;Group&gt;">
					<g id="&lt;Group&gt;">
						<path id="&lt;Path&gt;" class="s2" d="m774.3 540.1c-18.5 0-37-10.6-37.8-11-0.5-0.3-0.7-1-0.4-1.5 0.3-0.4 0.9-0.6 1.4-0.3 0.2 0.1 22 12.5 41.3 10.5 0.5 0 1 0.4 1.1 0.9 0.1 0.6-0.4 1.1-0.9 1.2q-2.3 0.2-4.7 0.2z"/>
					</g>
				</g>
				<g id="&lt;Group&gt;">
					<g id="&lt;Group&gt;">
						<path id="&lt;Path&gt;" class="s2" d="m757.9 410.2c-0.5 0-0.9-0.3-1-0.8-0.1-0.6 0.3-1.1 0.8-1.2 26.1-5 33.9-21.7 34-21.9 0.2-0.5 0.9-0.7 1.4-0.5 0.5 0.2 0.7 0.8 0.5 1.4-0.3 0.7-8.4 17.9-35.5 23q-0.1 0-0.2 0z"/>
					</g>
				</g>
				<g id="&lt;Group&gt;">
					<path id="&lt;Path&gt;" class="s12" d="m793 368.6c-5.2 11.8-17.3 27.8-33.9 24.9-16-2.7-24.1-15-29.6-23.7 8.4-4.5 16.9-8.7 21.2-11.5 4.3 1.8 7.6 2.8 11.3 2.8q0.1 0 0.3 0 0.2 0 0.3 0c3.7 0 7-1 11.3-2.8 4 2.6 11.4 6.3 19.1 10.3z"/>
				</g>
				<g id="&lt;Group&gt;">
					<path id="&lt;Path&gt;" class="s4" d="m764.5 378.1c-15 1.6-20.5-16.6-20.5-16.7-0.2-0.4 0.1-0.8 0.5-1 0.4-0.1 0.8 0.2 0.9 0.5 0.2 0.8 5.4 17.9 19.8 15.6 12.6-1.9 11.9-16 11.8-16.6 0-0.4 0.3-0.8 0.7-0.8 0.4 0 0.8 0.3 0.8 0.7 0 0.1 0.8 16-13.1 18.2q-0.5 0.1-0.9 0.1z"/>
				</g>
			</g>
			<g id="&lt;Group&gt;">
				<path id="&lt;Path&gt;" class="s9" d="m734 317.7c0 0-12.3-21-2-37.3 10.4-16.2 32.5-14.7 38.2-13.4 5.7 1.3 38.6 16.7 18.7 54.1z"/>
				<g id="&lt;Group&gt;">
					<g id="&lt;Group&gt;">
						<path id="&lt;Path&gt;" class="s13" d="m736 311.8c0 0-5-6.7-8.7-1.2-3.7 5.5 1.6 21.7 10.6 17.8z"/>
					</g>
					<g id="&lt;Group&gt;">
						<g id="&lt;Group&gt;">
							<path id="&lt;Path&gt;" class="s14" d="m736 323.3c-0.4 0-0.7-0.2-0.8-0.5-1.4-5-6.6-7.1-6.6-7.1-0.4-0.1-0.6-0.6-0.5-1 0.2-0.4 0.6-0.6 1-0.4 0.3 0.1 6 2.3 7.6 8.1 0.1 0.4-0.1 0.8-0.5 0.9q-0.1 0-0.2 0z"/>
						</g>
					</g>
					<g id="&lt;Group&gt;">
						<g id="&lt;Group&gt;">
							<path id="&lt;Path&gt;" class="s14" d="m730.7 320.8q-0.2 0-0.4-0.1c-0.3-0.2-0.4-0.7-0.2-1.1 0 0 0.9-1.4 2.9-2.3 0.3-0.2 0.8 0 1 0.4 0.1 0.4 0 0.8-0.4 1-1.5 0.7-2.2 1.8-2.2 1.8-0.2 0.2-0.4 0.3-0.7 0.3z"/>
						</g>
					</g>
				</g>
				<g id="&lt;Group&gt;">
					<g id="&lt;Group&gt;">
						<path id="&lt;Path&gt;" class="s13" d="m787.4 311.8c0 0 5-6.7 8.7-1.2 3.7 5.5-1.6 21.7-10.6 17.8z"/>
					</g>
					<g id="&lt;Group&gt;">
						<g id="&lt;Group&gt;">
							<path id="&lt;Path&gt;" class="s14" d="m787.5 323.3c0.3 0 0.6-0.2 0.7-0.5 1.4-5 6.6-7.1 6.6-7.1 0.4-0.1 0.6-0.6 0.5-1-0.2-0.4-0.6-0.6-1-0.4-0.2 0.1-6 2.3-7.6 8.1-0.1 0.4 0.1 0.8 0.5 0.9q0.1 0 0.3 0z"/>
						</g>
					</g>
					<g id="&lt;Group&gt;">
						<g id="&lt;Group&gt;">
							<g id="&lt;Group&gt;">
								<path id="&lt;Path&gt;" class="s14" d="m792.7 320.8q0.2 0 0.4-0.1c0.4-0.2 0.5-0.7 0.2-1.1 0 0-0.9-1.4-2.8-2.3-0.4-0.2-0.9 0-1.1 0.4-0.1 0.4 0 0.8 0.4 1 1.5 0.7 2.2 1.8 2.2 1.8 0.2 0.2 0.4 0.3 0.7 0.3z"/>
							</g>
						</g>
					</g>
				</g>
				<g id="&lt;Group&gt;">
					<path id="&lt;Path&gt;" class="s12" d="m774 342.1v16.2c0 0-4.8 8.2-11.3 8.7-6.5 0.6-12.3-7-12.3-7v-16.7z"/>
				</g>
				<g id="&lt;Group&gt;">
					<path id="&lt;Path&gt;" class="s13" d="m774 342.1v7.2c-4.4 4.8-12.1 6-23.6 4.3v-10.3z"/>
				</g>
				<g id="&lt;Group&gt;">
					<path id="&lt;Path&gt;" class="s12" d="m791 300.7c-0.3 6.3-0.9 14.1-2.1 20.4q-0.5 2.3-1 4.3c-3.4 11.9-11.9 32.3-35.7 23.8-10.5-3.7-15.4-15.4-17.5-27.3-1.5-8.1-1.7-16.3-1.6-22.1 0.1-6 3.3-11.4 8.5-14.4 14.1-7.9 28.9-4.9 38.6-1.2 6.8 2.6 11.1 9.3 10.8 16.5z"/>
				</g>
				<path id="&lt;Path&gt;" class="s9" d="m755.3 277.7c0 0 31.4 50.3 35.7 31.9 6.1-26.2-12.6-42.4-35.7-31.9z"/>
				<path id="&lt;Path&gt;" class="s9" d="m754 277.7c-20.9 0.2-31.3 23.9-21.6 26.7 13.5 3.9 25.2-15.2 28.8-21.8-2.5-1.6-4.9-3.2-7.2-4.9z"/>
				<path id="&lt;Path&gt;" class="s9" d="m792 266.4c0 11.4-9.2 20.7-20.6 20.7-11.4 0-20.7-9.3-20.7-20.7 0-11.4 9.3-20.6 20.7-20.6 11.4 0 20.6 9.2 20.6 20.6z"/>
				<path id="&lt;Path&gt;" class="s9" d="m736.7 302.1c0 0 1.7 6.4-0.6 10.6-2.2 4.2-1 11.5 0 19.7 0 0-3.5-5-3.7-13-0.2-8 1.1-14.6 0-17.8z"/>
				<path id="&lt;Path&gt;" class="s9" d="m786 302.1c0 0-1.6 6.4 0.6 10.6 2.3 4.2 1 11.5 0 19.7 0 0 3.6-5 3.8-13 0.2-8-1.1-14.6 0-17.8z"/>
				<path id="&lt;Path&gt;" class="s9" d="m751.2 312.7c0 1.7-0.9 3.1-1.9 3.1-1.1 0-2-1.4-2-3.1 0-1.7 0.9-3.1 2-3.1 1 0 1.9 1.4 1.9 3.1z"/>
				<path id="&lt;Path&gt;" class="s9" d="m775.7 312.7c0 1.7-0.9 3.1-2 3.1-1.1 0-1.9-1.4-1.9-3.1 0-1.7 0.8-3.1 1.9-3.1 1.1 0 2 1.4 2 3.1z"/>
				<path id="&lt;Path&gt;" class="s9" d="m745.3 303.4c1.7-0.5 5-1.2 8.5-1.3 0.9 0 1.6 0.9 1.5 1.8-0.2 0.7-0.8 1.2-1.5 1.2-2.4-0.1-8.7 0.2-11.7 1.4 0-0.5 0.3-1.1 0.7-1.6 0.7-0.7 1.6-1.2 2.5-1.5z"/>
				<path id="&lt;Path&gt;" class="s9" d="m777.4 303.5c-1.7-0.5-5-1.3-8.5-1.3-0.9 0-1.6 0.8-1.5 1.7v0.1c0.1 0.7 0.8 1.2 1.5 1.2 2.4-0.2 8.7 0.2 11.7 1.4 0-0.5-0.3-1.1-0.7-1.6-0.7-0.8-1.6-1.3-2.5-1.5z"/>
				<g id="&lt;Group&gt;">
					<g id="&lt;Group&gt;">
						<g id="&lt;Group&gt;">
							<path id="&lt;Path&gt;" class="s13" d="m762 326.9c-0.6 0-1.2-0.1-1.7-0.4-0.4-0.2-1-0.8-1.1-1.8-0.3-2.9 0.4-11.7 0.5-12.1 0-0.4 0.4-0.7 0.8-0.7 0.4 0.1 0.7 0.4 0.7 0.9 0 0.1-0.8 9-0.5 11.7 0.1 0.5 0.3 0.6 0.4 0.7 0.7 0.4 2.4 0 3.1-0.3 0.4-0.1 0.8 0.1 1 0.4 0.1 0.4-0.1 0.9-0.5 1-0.1 0.1-1.4 0.6-2.7 0.6z"/>
						</g>
					</g>
				</g>
				<path id="&lt;Path&gt;" class="s16" d="m752.2 331.8c0.6 2.9 2.5 8.3 9 8.3 6.5 0 8.4-5 9-8.3z"/>
				<g id="&lt;Group&gt;">
					<g id="&lt;Group&gt;">
						<path id="&lt;Path&gt;" class="s13" d="m761.1 344.5c-1.8 0-3.5-1-3.6-1-0.3-0.2-0.4-0.7-0.2-1.1 0.2-0.3 0.7-0.5 1-0.2 0.1 0 1.4 0.8 2.8 0.8 1.6 0 3-0.8 3-0.8 0.3-0.3 0.8-0.1 1 0.2 0.3 0.4 0.1 0.9-0.2 1.1-0.1 0-1.8 1-3.8 1z"/>
					</g>
				</g>
			</g>
		</g>
		<g id="&lt;Group&gt;">
			<g id="&lt;Group&gt;">
				<g id="&lt;Group&gt;">
					<path id="&lt;Compound Path&gt;" fill-rule="evenodd" class="s1" d="m127.3 234.4c0-6.2 5.1-11.3 11.4-11.3 6.2 0 11.3 5.1 11.3 11.3 0 6.3-5.1 11.4-11.3 11.4-6.3 0-11.4-5.1-11.4-11.4zm3.6 0c0 4.3 3.5 7.8 7.8 7.8 4.3 0 7.7-3.5 7.7-7.8 0-4.3-3.4-7.8-7.7-7.8-4.3 0-7.8 3.5-7.8 7.8z"/>
				</g>
				<g id="&lt;Group&gt;">
					<path id="&lt;Compound Path&gt;" fill-rule="evenodd" class="s1" d="m164.1 205.2c0-6.3 5.1-11.4 11.4-11.4 6.2 0 11.3 5.1 11.3 11.4 0 6.2-5.1 11.3-11.3 11.3-6.3 0-11.4-5.1-11.4-11.3zm3.6 0c0 4.2 3.5 7.7 7.8 7.7 4.3 0 7.8-3.5 7.8-7.7 0-4.3-3.5-7.8-7.8-7.8-4.3 0-7.8 3.5-7.8 7.8z"/>
				</g>
				<g id="&lt;Group&gt;">
					<g id="&lt;Group&gt;">
						<g id="&lt;Group&gt;">
							<path id="&lt;Path&gt;" class="s5" d="m110.8 270.7c1 0 1.8-0.8 1.8-1.8v-7.8c0-1-0.8-1.8-1.8-1.8-1 0-1.8 0.8-1.8 1.8v7.8c0 1 0.8 1.8 1.8 1.8z"/>
						</g>
						<g id="&lt;Group&gt;">
							<path id="&lt;Path&gt;" class="s5" d="m110.8 284.4c1 0 1.8-0.8 1.8-1.7v-7.9c0-1-0.8-1.8-1.8-1.8-1 0-1.8 0.8-1.8 1.8v7.9c0 0.9 0.8 1.7 1.8 1.7z"/>
						</g>
					</g>
					<g id="&lt;Group&gt;">
						<g id="&lt;Group&gt;">
							<path id="&lt;Path&gt;" class="s5" d="m99.8 273.6h7c1 0 1.8-0.8 1.8-1.7 0-1-0.8-1.8-1.8-1.8h-7c-1 0-1.8 0.8-1.8 1.8 0 0.9 0.8 1.7 1.8 1.7z"/>
						</g>
						<g id="&lt;Group&gt;">
							<path id="&lt;Path&gt;" class="s5" d="m114.8 273.6h7c1 0 1.8-0.8 1.8-1.7 0-1-0.8-1.8-1.8-1.8h-7c-1 0-1.8 0.8-1.8 1.8 0 0.9 0.8 1.7 1.8 1.7z"/>
						</g>
					</g>
				</g>
				<g id="&lt;Group&gt;">
					<g id="&lt;Group&gt;">
						<g id="&lt;Group&gt;">
							<path id="&lt;Path&gt;" class="s5" d="m134.4 176.9c1 0 1.8-0.8 1.8-1.8v-7.9c0-0.9-0.8-1.7-1.8-1.7-1 0-1.8 0.8-1.8 1.7v7.9c0 1 0.8 1.8 1.8 1.8z"/>
						</g>
						<g id="&lt;Group&gt;">
							<path id="&lt;Path&gt;" class="s5" d="m134.4 190.6c1 0 1.8-0.8 1.8-1.8v-7.8c0-1-0.8-1.8-1.8-1.8-1 0-1.8 0.8-1.8 1.8v7.8c0 1 0.8 1.8 1.8 1.8z"/>
						</g>
					</g>
					<g id="&lt;Group&gt;">
						<g id="&lt;Group&gt;">
							<path id="&lt;Path&gt;" class="s5" d="m123.4 179.8h7c1 0 1.8-0.8 1.8-1.8 0-1-0.8-1.8-1.8-1.8h-7c-1 0-1.8 0.8-1.8 1.8 0 1 0.8 1.8 1.8 1.8z"/>
						</g>
						<g id="&lt;Group&gt;">
							<path id="&lt;Path&gt;" class="s5" d="m138.4 179.8h7c1 0 1.8-0.8 1.8-1.8 0-1-0.8-1.8-1.8-1.8h-7c-1 0-1.8 0.8-1.8 1.8 0 1 0.8 1.8 1.8 1.8z"/>
						</g>
					</g>
				</g>
			</g>
			<g id="&lt;Group&gt;">
				<g id="&lt;Group&gt;">
					<path id="&lt;Compound Path&gt;" fill-rule="evenodd" class="s1" d="m890.6 382c6.2 0 11.3 5.1 11.3 11.3 0 6.3-5.1 11.4-11.3 11.4-6.3 0-11.4-5.1-11.4-11.4 0-6.2 5.1-11.3 11.4-11.3zm0 19.1c4.2 0 7.7-3.5 7.7-7.8 0-4.3-3.5-7.8-7.7-7.8-4.3 0-7.8 3.5-7.8 7.8 0 4.3 3.5 7.8 7.8 7.8z"/>
				</g>
				<g id="&lt;Group&gt;">
					<path id="&lt;Compound Path&gt;" fill-rule="evenodd" class="s5" d="m849.7 342.2c6.3 0 11.4 5.1 11.4 11.3 0 6.3-5.1 11.4-11.4 11.4-6.2 0-11.3-5.1-11.3-11.4 0-6.2 5.1-11.3 11.3-11.3zm0 19.1c4.3 0 7.8-3.5 7.8-7.8 0-4.2-3.5-7.7-7.8-7.7-4.3 0-7.8 3.5-7.8 7.7 0 4.3 3.5 7.8 7.8 7.8z"/>
				</g>
				<g id="&lt;Group&gt;">
					<g id="&lt;Group&gt;">
						<g id="&lt;Group&gt;">
							<path id="&lt;Path&gt;" class="s1" d="m835.7 305.4c1 0 1.8 0.8 1.8 1.7v7.9c0 1-0.8 1.8-1.8 1.8-1 0-1.8-0.8-1.8-1.8v-7.9c0-0.9 0.8-1.7 1.8-1.7z"/>
						</g>
						<g id="&lt;Group&gt;">
							<path id="&lt;Path&gt;" class="s1" d="m835.7 291.6c1 0 1.8 0.8 1.8 1.8v7.8c0 1-0.8 1.8-1.8 1.8-1 0-1.8-0.8-1.8-1.8v-7.8c0-1 0.8-1.8 1.8-1.8z"/>
						</g>
					</g>
					<g id="&lt;Group&gt;">
						<g id="&lt;Group&gt;">
							<path id="&lt;Path&gt;" class="s1" d="m824.7 302.4h7.1c0.9 0 1.7 0.8 1.7 1.8 0 1-0.8 1.8-1.7 1.8h-7.1c-1 0-1.8-0.8-1.8-1.8 0-1 0.8-1.8 1.8-1.8z"/>
						</g>
						<g id="&lt;Group&gt;">
							<path id="&lt;Path&gt;" class="s1" d="m839.7 302.4h7c1 0 1.8 0.8 1.8 1.8 0 1-0.8 1.8-1.8 1.8h-7c-1 0-1.8-0.8-1.8-1.8 0-1 0.8-1.8 1.8-1.8z"/>
						</g>
					</g>
				</g>
				<g id="&lt;Group&gt;">
					<g id="&lt;Group&gt;">
						<g id="&lt;Group&gt;">
							<g id="&lt;Group&gt;">
								<path id="&lt;Path&gt;" class="s5" d="m898.3 349.3c1 0 1.8 0.8 1.8 1.8v7.8c0 1-0.8 1.8-1.8 1.8-0.9 0-1.7-0.8-1.7-1.8v-7.8c0-1 0.8-1.8 1.7-1.8z"/>
							</g>
							<g id="&lt;Group&gt;">
								<path id="&lt;Path&gt;" class="s5" d="m898.3 335.6c1 0 1.8 0.8 1.8 1.8v7.8c0 1-0.8 1.8-1.8 1.8-0.9 0-1.7-0.8-1.7-1.8v-7.8c0-1 0.8-1.8 1.7-1.8z"/>
							</g>
						</g>
						<g id="&lt;Group&gt;">
							<g id="&lt;Group&gt;">
								<path id="&lt;Path&gt;" class="s5" d="m887.3 346.4h7.1c1 0 1.8 0.8 1.8 1.7 0 1-0.8 1.8-1.8 1.8h-7.1c-1 0-1.8-0.8-1.8-1.8 0-0.9 0.8-1.7 1.8-1.7z"/>
							</g>
							<g id="&lt;Group&gt;">
								<path id="&lt;Path&gt;" class="s5" d="m902.3 346.4h7c1 0 1.8 0.8 1.8 1.7 0 1-0.8 1.8-1.8 1.8h-7c-1 0-1.8-0.8-1.8-1.8 0-0.9 0.8-1.7 1.8-1.7z"/>
							</g>
						</g>
					</g>
				</g>
			</g>
		</g>
	</g>
</svg>